<?xml version="1.0" encoding="utf-8"?>
<!-- Generator: Adobe Illustrator 16.0.0, SVG Export Plug-In . SVG Version: 6.00 Build 0)  -->
<!DOCTYPE svg [
	<!ENTITY ns_flows "http://ns.adobe.com/Flows/1.0/">
	<!ENTITY ns_extend "http://ns.adobe.com/Extensibility/1.0/">
	<!ENTITY ns_ai "http://ns.adobe.com/AdobeIllustrator/10.0/">
	<!ENTITY ns_graphs "http://ns.adobe.com/Graphs/1.0/">
]>
<svg version="1.2" baseProfile="tiny" xmlns:x="&ns_extend;" xmlns:i="&ns_ai;" xmlns:graph="&ns_graphs;"
	 xmlns="http://www.w3.org/2000/svg" xmlns:xlink="http://www.w3.org/1999/xlink" xmlns:a="http://ns.adobe.com/AdobeSVGViewerExtensions/3.0/"
	 x="0px" y="0px" width="300px" height="300px" viewBox="0 0 300 300" xml:space="preserve">

		<path fill="#000000" d="M142.943,137.134c-4.254-0.781-8.487-2.077-12.765-2.251c-15.657-0.635-31.334-1.359-46.991-1.136
			c-10.396,0.149-20.587,2.47-30.356,6.502c-6.005,2.479-12.29,4.209-19.014,2.482c-5.247-1.347-9.076-4.424-11.315-9.142
			c-3.454-7.269-4.561-14.763-1.538-22.659c3.595-9.395,14.621-15.383,24.556-13.642c6.716,1.175,11.919,4.516,16.565,9.069
			c5.22,5.116,11.158,8.076,18.686,8.171c5.354,0.066,10.686,1.267,16.046,1.731c2.9,0.252,5.847-0.094,8.764,0.036
			c7.624,0.333,15.238,0.909,22.864,1.125c3.587,0.1,7.213-0.233,10.783-0.684c3.921-0.494,5.49-3.146,4.947-7.11
			c-0.993-7.232-1.502-14.543-2.754-21.727c-2.639-15.142-6.24-29.994-14.864-43.117c-2.584-3.934-5.039-7.978-7.209-12.151
			c-5.535-10.629-3.105-19.639,6.896-26.326c8.091-5.409,16.578-6.212,25.389-1.952c8.053,3.894,12.931,14.631,11.532,23.49
			c-0.973,6.158-3.598,11.428-6.655,16.635c-3.145,5.356-3.151,11.22-1.897,16.926c1.842,8.376,4.049,16.702,6.653,24.875
			c1.59,4.984,4.071,9.651,9.99,11.192c4.05,1.054,8.017,0.964,11.832-0.368c6.886-2.404,13.693-5.052,20.461-7.775
			c10.68-4.298,20.501-10.116,29.814-16.88c5.315-3.857,9.754-8.524,14.17-13.327c3.509-3.816,7.39-7.448,11.644-10.38
			c5.875-4.048,15.057-3.002,20.537,1.646c3.749,3.18,7.573,6.405,8.927,11.393c3.871,14.253-5.063,30.521-21.206,31.114
			c-4.915,0.18-9.997-0.66-14.796-1.86c-5.234-1.311-9.985-1.156-14.909,1.066c-8.597,3.881-17.378,7.358-25.961,11.269
			c-2.884,1.313-5.583,3.218-8.005,5.276c-1.181,1.005-2.495,3.458-2.028,4.417c0.719,1.475,2.869,3.044,4.501,3.145
			c9.241,0.569,18.482,0.31,27.355-2.799c2.345-0.821,4.623-1.979,6.733-3.299c7.137-4.466,17.803-3.67,23.82,2.23
			c6.758,6.628,8.041,17.238,2.852,24.755c-5.575,8.071-14.396,11.305-23.38,8.165c-1.023-0.357-2.029-0.873-2.918-1.495
			c-7.099-4.952-14.899-7.273-23.6-7.818c-6.247-0.389-12.328-0.877-18.484,0.61c-3.562,0.858-5.084,2.725-4.03,6.286
			c6.292,21.311,11.365,43.038,20.044,63.563c5.704,13.488,12.312,26.596,18.56,39.855c1.85,3.922,5.293,6.006,9.019,7.967
			c7.711,4.062,11.613,10.652,12.169,19.381c0.659,10.318-3.634,17.828-12.903,22.035c-12.885,5.844-29.057-0.246-32.687-14.758
			c-1.825-7.301-1.184-14.404,3.637-20.557c1.837-2.346,2.032-4.539,1.058-7.227c-5.262-14.512-10.04-29.213-15.765-43.537
			c-4.765-11.918-10.601-23.404-15.97-35.082c-2.435-5.295-4.738-10.658-7.37-15.857c-3.303-6.518-8.151-8.572-13.396-5.692
			c-2.703,1.483-5.178,3.431-7.605,5.36c-6.113,4.855-12.374,9.561-18.15,14.795c-9.444,8.557-18.659,17.375-27.756,26.301
			c-4.868,4.779-9.227,10.072-13.92,15.031c-7.183,7.59-12.735,16.018-14.053,26.666c-0.589,4.754-0.513,9.648-1.615,14.271
			c-3.352,14.051-12.817,22.316-26.45,25.842c-12.323,3.186-23.324,0.283-32.107-9.061c-5.464-5.812-8.452-12.859-9.339-21.01
			c-0.972-8.936,0.358-17.129,5.124-24.725c5.186-8.264,13.052-12.488,22.327-14.361c7.728-1.561,15.477-3.07,23.27-4.24
			c6.918-1.035,12.285-4.822,17.227-9.213c7.212-6.41,14.089-13.197,21.107-19.826c7.215-6.811,14.304-13.764,21.682-20.396
			c6.479-5.824,13.298-11.267,19.92-16.935c0.952-0.813,1.64-1.937,2.45-2.917C143.041,138.058,142.993,137.595,142.943,137.134z"/>
</svg>
