<?xml version="1.0" encoding="utf-8"?>
<!-- Generator: Adobe Illustrator 16.0.0, SVG Export Plug-In . SVG Version: 6.00 Build 0)  -->
<!DOCTYPE svg PUBLIC "-//W3C//DTD SVG 1.1//EN" "http://www.w3.org/Graphics/SVG/1.1/DTD/svg11.dtd" [
	<!ENTITY ns_flows "http://ns.adobe.com/Flows/1.0/">
	<!ENTITY ns_extend "http://ns.adobe.com/Extensibility/1.0/">
	<!ENTITY ns_ai "http://ns.adobe.com/AdobeIllustrator/10.0/">
	<!ENTITY ns_graphs "http://ns.adobe.com/Graphs/1.0/">
]>
<svg version="1.1" id="Layer_1" xmlns:x="&ns_extend;" xmlns:i="&ns_ai;" xmlns:graph="&ns_graphs;"
	 xmlns="http://www.w3.org/2000/svg" xmlns:xlink="http://www.w3.org/1999/xlink" xmlns:a="http://ns.adobe.com/AdobeSVGViewerExtensions/3.0/"
	 x="0px" y="0px" width="186.523px" height="295.999px" viewBox="46.167 1.501 186.523 295.999"
	 enable-background="new 46.167 1.501 186.523 295.999" xml:space="preserve">

		<path fill="#F8485D"  d="M232.689,189.291c-9.256,6.43-24.482,15.824-33.489,22.576c-18.986,14.23-36.897,29.587-48.913,50.637
			c-3.602,6.312-7.448,12.52-11.669,18.428c-10.748,15.059-24.844,18.023-41.048,8.946c-13.107-7.346-20.154-18.459-20.464-33.563
			c-0.28-13.807,11.077-28.035,24.244-32.314c9.153-2.973,18.242-3.053,27.546-2.491c9.57,0.576,17.643-3.52,24.616-9.239
			c10.233-8.398,20.143-17.266,29.564-26.572c5.744-5.676,10.428-12.356,8.402-21.58c-1.383-6.311-4.287-11.703-8.791-16.021
			c-8.129-7.79-16.537-15.301-25.023-22.706c-13.39-11.683-28.272-21.121-44.098-29.2c-9.029-4.612-18.558-7.451-28.257-10.163
			c-7.707-2.155-15.421-4.952-22.433-8.75c-9.683-5.25-14.672-18.614-12.116-29.407c1.75-7.385,3.509-14.905,9.423-20.259
			c16.898-15.304,45.536-14.403,57.654,7.39c3.689,6.637,6.092,14.216,7.801,21.66c1.862,8.118,5.4,14.546,11.905,19.765
			c11.359,9.109,22.291,18.756,33.684,27.827c3.824,3.047,8.336,5.428,12.861,7.318c2.209,0.921,6.506,1.013,7.498-0.301
			c1.525-2.021,2.18-6.078,1.174-8.394c-5.688-13.113-12.514-25.645-23.004-35.676c-2.771-2.652-5.961-4.975-9.253-6.955
			c-11.141-6.691-17.515-21.923-13.609-34.333c4.385-13.938,18.084-23.132,32.059-21.256c15.008,2.02,25.634,11.89,27.605,26.449
			c0.221,1.658,0.217,3.403-0.017,5.062c-1.843,13.234,0.426,25.59,5.769,37.941c3.838,8.866,13.955,25.618,20.312,33.046
			C232.496,107.023,232.689,189.268,232.689,189.291z"/>
</svg>
